<svg xmlns="http://www.w3.org/2000/svg" viewBox="0 0 1600 520" role="img" aria-labelledby="title desc" >
  <title id="title">AreaFlow Logo Lockup Dark Outlined</title>
  <desc id="desc">AreaFlow horizontal logo with the canonical workflow scheduler icon and emphasized Flow wordmark.</desc>
  <defs><linearGradient id="lockup-flow-dark-outlined" x1="0" y1="0" x2="1" y2="0"><stop offset="0" stop-color="#18BFC7"/><stop offset="0.52" stop-color="#36D9A6"/><stop offset="0.82" stop-color="#F5B02E"/><stop offset="1" stop-color="#F46D5E"/></linearGradient></defs>
  <svg x="90" y="50" width="420" height="420" viewBox="0 0 512 512"><rect width="512" height="512" rx="112" fill="#07191D"/>
  <defs>
    <linearGradient id="lockup-icon-dark-true-flow" x1="90" y1="360" x2="410" y2="120" gradientUnits="userSpaceOnUse">
      <stop offset="0" stop-color="#36D9A6"/><stop offset="0.48" stop-color="#18BFC7"/><stop offset="1" stop-color="#F5B02E"/>
    </linearGradient>
    <linearGradient id="lockup-icon-dark-true-orbit" x1="120" y1="330" x2="390" y2="130" gradientUnits="userSpaceOnUse">
      <stop offset="0" stop-color="#36D9A6"/><stop offset="0.5" stop-color="#F5B02E"/><stop offset="1" stop-color="#F46D5E"/>
    </linearGradient>
  </defs>
    <circle cx="256" cy="246" r="126" fill="#E7FFF8"/>
    <circle cx="256" cy="246" r="91" fill="#BDF3EA"/>
    <circle cx="256" cy="246" r="46" fill="#18BFC7"/>
    <path d="M256 82V146M256 346V410M92 246H156M356 246H420M140 130L185 175M372 130L327 175M140 362L185 317M372 362L327 317" stroke="#8EA7AA" stroke-width="21" stroke-linecap="round"/>
    <path d="M116 395H396" stroke="#94ADB0" stroke-width="15" stroke-linecap="round" opacity="0.38"/>
    <path d="M112 352C171 381 263 387 333 337C395 292 415 219 382 159" stroke="url(#lockup-icon-dark-true-orbit)" stroke-width="31" stroke-linecap="round" fill="none"/>
    <path d="M120 352C181 345 232 315 275 266C315 220 351 183 395 157" stroke="url(#lockup-icon-dark-true-flow)" stroke-width="26" stroke-linecap="round" fill="none"/>
    <circle cx="120" cy="352" r="34" fill="#36D9A6"/>
    <circle cx="256" cy="246" r="25" fill="#18BFC7" stroke="#E7FFF8" stroke-width="10"/>
    <circle cx="334" cy="337" r="25" fill="#F5B02E"/>
    <circle cx="395" cy="157" r="30" fill="#F46D5E"/>
    <rect x="361" y="122" width="70" height="70" rx="22" fill="#F46D5E"/>
    <path d="M376 157H416" stroke="#FFFFFF" stroke-width="14" stroke-linecap="round"/></svg>
  <g transform="translate(588 140)"><path d="M48.34 31.83L80.45 112L62.84 112L55.84 93.79L23.79 93.79L17.17 112L0 112L31.23 31.83L48.34 31.83ZM28.77 80.28L50.64 80.28L39.59 50.53L28.77 80.28ZM103.63 94.06L103.63 112L88.27 112L88.27 53.92L102.54 53.92L102.54 62.18Q106.20 56.33 109.13 54.47Q112.05 52.61 115.77 52.61Q121.02 52.61 125.89 55.51L121.13 68.91Q117.25 66.39 113.91 66.39Q110.69 66.39 108.45 68.17Q106.20 69.95 104.92 74.59Q103.63 79.24 103.63 94.06ZM166.14 93.52L181.45 96.09Q178.50 104.51 172.13 108.91Q165.76 113.31 156.19 113.31Q141.04 113.31 133.77 103.41Q128.02 95.48 128.02 83.40Q128.02 68.96 135.57 60.79Q143.12 52.61 154.66 52.61Q167.62 52.61 175.11 61.17Q182.60 69.73 182.27 87.39L143.77 87.39Q143.94 94.23 147.49 98.03Q151.05 101.83 156.35 101.83Q159.96 101.83 162.42 99.86Q164.88 97.89 166.14 93.52ZM144.05 77.98L167.02 77.98Q166.85 71.31 163.57 67.84Q160.29 64.37 155.59 64.37Q150.55 64.37 147.27 68.03Q143.99 71.70 144.05 77.98ZM206.28 71.64L192.34 69.13Q194.69 60.70 200.43 56.66Q206.17 52.61 217.49 52.61Q227.77 52.61 232.80 55.04Q237.84 57.48 239.89 61.22Q241.94 64.97 241.94 74.98L241.77 92.91Q241.77 100.57 242.51 104.21Q243.25 107.84 245.27 112L230.07 112Q229.47 110.47 228.59 107.46Q228.21 106.09 228.05 105.66Q224.11 109.48 219.63 111.40Q215.14 113.31 210.05 113.31Q201.09 113.31 195.92 108.45Q190.75 103.58 190.75 96.14Q190.75 91.22 193.10 87.36Q195.45 83.51 199.69 81.46Q203.93 79.41 211.91 77.88Q222.69 75.85 226.84 74.10L226.84 72.57Q226.84 68.14 224.66 66.25Q222.47 64.37 216.40 64.37Q212.30 64.37 210 65.98Q207.70 67.59 206.28 71.64ZM226.84 87.17L226.84 84.11Q223.89 85.09 217.49 86.46Q211.09 87.83 209.13 89.14Q206.12 91.27 206.12 94.55Q206.12 97.78 208.52 100.13Q210.93 102.48 214.65 102.48Q218.80 102.48 222.58 99.75Q225.37 97.67 226.24 94.66Q226.84 92.70 226.84 87.17Z" fill="#F4FBF8"/><path d="M24.45 112L8.26 112L8.26 31.83L63.22 31.83L63.22 45.39L24.45 45.39L24.45 64.37L57.91 64.37L57.91 77.93L24.45 77.93L24.45 112ZM91.82 112L76.45 112L76.45 31.83L91.82 31.83L91.82 112ZM104.02 82.14Q104.02 74.48 107.79 67.32Q111.56 60.16 118.48 56.38Q125.40 52.61 133.93 52.61Q147.11 52.61 155.53 61.17Q163.95 69.73 163.95 82.80Q163.95 95.98 155.45 104.64Q146.95 113.31 134.04 113.31Q126.05 113.31 118.81 109.70Q111.56 106.09 107.79 99.12Q104.02 92.15 104.02 82.14ZM119.77 82.96Q119.77 91.60 123.87 96.20Q127.97 100.79 133.98 100.79Q140 100.79 144.07 96.20Q148.15 91.60 148.15 82.85Q148.15 74.32 144.07 69.73Q140 65.13 133.98 65.13Q127.97 65.13 123.87 69.73Q119.77 74.32 119.77 82.96ZM201.74 112L186.81 112L168.44 53.92L183.37 53.92L194.25 91.98L204.26 53.92L219.08 53.92L228.76 91.98L239.86 53.92L255.01 53.92L236.36 112L221.59 112L211.59 74.65L201.74 112Z" transform="translate(249.05 0)" fill="url(#lockup-flow-dark-outlined)"/><path d="M4 166H548" stroke="#557579" stroke-width="11" stroke-linecap="round" opacity="0.58"/>
    <path d="M4 166C126 166 204 151 292 146C390 140 474 156 548 166" fill="none" stroke="#18BFC7" stroke-width="11" stroke-linecap="round"/>
    <circle cx="222" cy="163" r="10" fill="#F5B02E"/><circle cx="548" cy="166" r="10" fill="#F4FBF8"/></g>
</svg>
