<svg xmlns="http://www.w3.org/2000/svg" viewBox="0 0 512 512" role="img" aria-labelledby="title desc" >
  <title id="title">AreaFlow App Icon Dark Small</title>
  <desc id="desc">AreaFlow scheduler dial with governed workflow paths, execution nodes, and a subtle shared baseline.</desc>
  <rect width="512" height="512" rx="112" fill="#07191D"/>
  <defs>
    <linearGradient id="icon-dark-small-flow" x1="90" y1="360" x2="410" y2="120" gradientUnits="userSpaceOnUse">
      <stop offset="0" stop-color="#36D9A6"/><stop offset="0.48" stop-color="#18BFC7"/><stop offset="1" stop-color="#F5B02E"/>
    </linearGradient>
    <linearGradient id="icon-dark-small-orbit" x1="120" y1="330" x2="390" y2="130" gradientUnits="userSpaceOnUse">
      <stop offset="0" stop-color="#36D9A6"/><stop offset="0.5" stop-color="#F5B02E"/><stop offset="1" stop-color="#F46D5E"/>
    </linearGradient>
  </defs>
    <circle cx="256" cy="246" r="118" fill="#E7FFF8"/>
    <circle cx="256" cy="246" r="76" fill="#BDF3EA"/>
    <circle cx="256" cy="246" r="37" fill="#18BFC7"/>
    <path d="M256 94V143M256 350V399M104 246H153M359 246H408" stroke="#8EA7AA" stroke-width="24" stroke-linecap="round"/>
    <path d="M126 390H386" stroke="#94ADB0" stroke-width="17" stroke-linecap="round" opacity="0.42"/>
    <path d="M116 352C186 385 270 383 335 334C386 295 410 224 382 159" stroke="url(#icon-dark-small-orbit)" stroke-width="36" stroke-linecap="round" fill="none"/>
    <path d="M120 352C191 341 238 305 279 258C318 214 353 181 395 157" stroke="url(#icon-dark-small-flow)" stroke-width="31" stroke-linecap="round" fill="none"/>
    <circle cx="120" cy="352" r="38" fill="#36D9A6"/>
    <rect x="356" y="118" width="78" height="78" rx="25" fill="#F46D5E"/>
    <path d="M374 157H416" stroke="#FFFFFF" stroke-width="17" stroke-linecap="round"/>
</svg>
