<svg xmlns="http://www.w3.org/2000/svg" viewBox="0 0 512 512" role="img" aria-labelledby="title desc" >
  <title id="title">AreaFlow Logo Mark Mono Dark</title>
  <desc id="desc">A single-color dark AreaFlow mark for constrained brand applications.</desc>
  <g fill="none" stroke="#09272D" stroke-linecap="round" stroke-linejoin="round">
    <rect x="48" y="48" width="416" height="416" rx="96" stroke-width="24"/>
    <circle cx="256" cy="246" r="112" stroke-width="22" opacity="0.45"/>
    <path d="M256 92V142M256 350V400M104 246H154M358 246H408" stroke-width="22" opacity="0.62"/>
    <path d="M124 391H388" stroke-width="18" opacity="0.58"/>
    <path d="M116 352C186 385 270 383 335 334C386 295 410 224 382 159" stroke-width="31"/>
    <path d="M120 352C191 341 238 305 279 258C318 214 353 181 395 157" stroke-width="25"/>
    <circle cx="256" cy="246" r="29" stroke-width="16"/>
    <rect x="360" y="121" width="73" height="73" rx="23" stroke-width="16"/>
    <path d="M378 157H415" stroke-width="14"/>
  </g>
  <g fill="#09272D"><circle cx="120" cy="352" r="27"/><circle cx="334" cy="337" r="20"/></g>
</svg>
