<svg xmlns="http://www.w3.org/2000/svg" viewBox="0 0 512 512" role="img" aria-labelledby="title desc" >
  <title id="title">AreaFlow Logo Symbol Light</title>
  <desc id="desc">The transparent AreaFlow workflow scheduler symbol adapted for the target background.</desc>
  <defs>
    <linearGradient id="symbol-light-flow" x1="90" y1="360" x2="410" y2="120" gradientUnits="userSpaceOnUse">
      <stop offset="0" stop-color="#20C99A"/><stop offset="0.48" stop-color="#0EACB4"/><stop offset="1" stop-color="#E9A524"/>
    </linearGradient>
    <linearGradient id="symbol-light-orbit" x1="120" y1="330" x2="390" y2="130" gradientUnits="userSpaceOnUse">
      <stop offset="0" stop-color="#20C99A"/><stop offset="0.5" stop-color="#E9A524"/><stop offset="1" stop-color="#E95E52"/>
    </linearGradient>
  </defs>
    <circle cx="256" cy="246" r="126" fill="#E1F8F1"/>
    <circle cx="256" cy="246" r="91" fill="#B8EBE2"/>
    <circle cx="256" cy="246" r="46" fill="#18BFC7"/>
    <path d="M256 82V146M256 346V410M92 246H156M356 246H420M140 130L185 175M372 130L327 175M140 362L185 317M372 362L327 317" stroke="#789396" stroke-width="21" stroke-linecap="round"/>
    <path d="M116 395H396" stroke="#6E8A8D" stroke-width="15" stroke-linecap="round" opacity="0.38"/>
    <path d="M112 352C171 381 263 387 333 337C395 292 415 219 382 159" stroke="url(#symbol-light-orbit)" stroke-width="31" stroke-linecap="round" fill="none"/>
    <path d="M120 352C181 345 232 315 275 266C315 220 351 183 395 157" stroke="url(#symbol-light-flow)" stroke-width="26" stroke-linecap="round" fill="none"/>
    <circle cx="120" cy="352" r="34" fill="#20C99A"/>
    <circle cx="256" cy="246" r="25" fill="#18BFC7" stroke="#E1F8F1" stroke-width="10"/>
    <circle cx="334" cy="337" r="25" fill="#E9A524"/>
    <circle cx="395" cy="157" r="30" fill="#E95E52"/>
    <rect x="361" y="122" width="70" height="70" rx="22" fill="#E95E52"/>
    <path d="M376 157H416" stroke="#FFFFFF" stroke-width="14" stroke-linecap="round"/>
</svg>
