<svg xmlns="http://www.w3.org/2000/svg" viewBox="0 0 512 512" role="img" aria-labelledby="title desc" >
  <title id="title">AreaFlow Logo Mark Dark</title>
  <desc id="desc">The AreaFlow logo mark with the canonical scheduler dial and governed flow paths.</desc>
  <rect width="512" height="512" rx="112" fill="#07191D"/>
  <defs>
    <linearGradient id="mark-dark-flow" x1="90" y1="360" x2="410" y2="120" gradientUnits="userSpaceOnUse">
      <stop offset="0" stop-color="#36D9A6"/><stop offset="0.48" stop-color="#18BFC7"/><stop offset="1" stop-color="#F5B02E"/>
    </linearGradient>
    <linearGradient id="mark-dark-orbit" x1="120" y1="330" x2="390" y2="130" gradientUnits="userSpaceOnUse">
      <stop offset="0" stop-color="#36D9A6"/><stop offset="0.5" stop-color="#F5B02E"/><stop offset="1" stop-color="#F46D5E"/>
    </linearGradient>
  </defs>
    <circle cx="256" cy="246" r="126" fill="#E7FFF8"/>
    <circle cx="256" cy="246" r="91" fill="#BDF3EA"/>
    <circle cx="256" cy="246" r="46" fill="#18BFC7"/>
    <path d="M256 82V146M256 346V410M92 246H156M356 246H420M140 130L185 175M372 130L327 175M140 362L185 317M372 362L327 317" stroke="#8EA7AA" stroke-width="21" stroke-linecap="round"/>
    <path d="M116 395H396" stroke="#94ADB0" stroke-width="15" stroke-linecap="round" opacity="0.38"/>
    <path d="M112 352C171 381 263 387 333 337C395 292 415 219 382 159" stroke="url(#mark-dark-orbit)" stroke-width="31" stroke-linecap="round" fill="none"/>
    <path d="M120 352C181 345 232 315 275 266C315 220 351 183 395 157" stroke="url(#mark-dark-flow)" stroke-width="26" stroke-linecap="round" fill="none"/>
    <circle cx="120" cy="352" r="34" fill="#36D9A6"/>
    <circle cx="256" cy="246" r="25" fill="#18BFC7" stroke="#E7FFF8" stroke-width="10"/>
    <circle cx="334" cy="337" r="25" fill="#F5B02E"/>
    <circle cx="395" cy="157" r="30" fill="#F46D5E"/>
    <rect x="361" y="122" width="70" height="70" rx="22" fill="#F46D5E"/>
    <path d="M376 157H416" stroke="#FFFFFF" stroke-width="14" stroke-linecap="round"/>
</svg>
